<svg xmlns="http://www.w3.org/2000/svg" version="1.1" xmlns:xlink="http://www.w3.org/1999/xlink" xmlns:svgjs="http://svgjs.com/svgjs" width="1440" height="560" preserveAspectRatio="none" viewBox="0 0 1440 560"><g mask="url(&quot;#SvgjsMask1022&quot;)" fill="none"><path d="M916.842,-1.57C932.265,-1.113,948.395,-5.167,956.719,-18.159C965.638,-32.08,966.29,-50.68,957.117,-64.435C948.696,-77.063,931.982,-79.036,916.842,-77.959C903.82,-77.032,892.327,-70.401,885.406,-59.332C877.983,-47.46,874.165,-32.705,880.858,-20.407C887.795,-7.661,902.337,-2,916.842,-1.57" fill="rgba(28, 83, 142, 0.4)" class="triangle-float1"></path><path d="M265.463,369.919C285.749,368.91,300.118,352.782,310.647,335.413C321.722,317.145,331.342,295.899,321.973,276.7C311.65,255.544,288.968,241.529,265.463,242.818C243.632,244.015,229.303,263.208,218.756,282.36C208.692,300.634,201.939,321.926,211.758,340.333C222.068,359.661,243.584,371.008,265.463,369.919" fill="rgba(28, 83, 142, 0.4)" class="triangle-float2"></path><path d="M366.194,375.547C406.46,373.545,435.926,340.138,453.232,303.725C468.058,272.53,463.623,237.105,446.154,207.309C428.915,177.906,400.227,157.142,366.194,155.269C328.505,153.195,290.067,166.005,269.385,197.581C246.716,232.191,242.983,276.852,262.753,313.196C283.373,351.102,323.096,377.69,366.194,375.547" fill="rgba(28, 83, 142, 0.4)" class="triangle-float2"></path><path d="M202.38 486.34 a123.48 123.48 0 1 0 246.96 0 a123.48 123.48 0 1 0 -246.96 0z" fill="rgba(28, 83, 142, 0.4)" class="triangle-float2"></path><path d="M990.03 524.65 a144.39 144.39 0 1 0 288.78 0 a144.39 144.39 0 1 0 -288.78 0z" fill="rgba(28, 83, 142, 0.4)" class="triangle-float3"></path><path d="M1357.8,354.822C1409.01,354.929,1464,342.382,1489.344,297.883C1514.503,253.708,1494.451,201.708,1470.562,156.833C1444.574,108.014,1413.02,53.849,1357.8,50.777C1298.955,47.503,1248.572,90.866,1220.986,142.947C1195.147,191.729,1197.254,250.963,1227.2,297.338C1254.854,340.164,1306.822,354.716,1357.8,354.822" fill="rgba(28, 83, 142, 0.4)" class="triangle-float3"></path><path d="M1368.1434450296658 450.05298298365926L1299.2478344634787 370.79764919211556 1288.888111238122 518.9485935498465z" fill="rgba(28, 83, 142, 0.4)" class="triangle-float3"></path><path d="M1339.004734085722 435.6917746524793L1341.6657555800916 511.89346015653086 1454.6377730889842 469.80108516295064z" fill="rgba(28, 83, 142, 0.4)" class="triangle-float3"></path><path d="M870.6866086439378-18.673612160697623L788.3841767651114 30.778678005487635 920.138898810123 63.62881971812876z" fill="rgba(28, 83, 142, 0.4)" class="triangle-float3"></path></g><defs><mask id="SvgjsMask1022"><rect width="1440" height="560" fill="#ffffff"></rect></mask><style>
            @keyframes float1 {
                0%{transform: translate(0, 0)}
                50%{transform: translate(-10px, 0)}
                100%{transform: translate(0, 0)}
            }

            .triangle-float1 {
                animation: float1 5s infinite;
            }

            @keyframes float2 {
                0%{transform: translate(0, 0)}
                50%{transform: translate(-5px, -5px)}
                100%{transform: translate(0, 0)}
            }

            .triangle-float2 {
                animation: float2 4s infinite;
            }

            @keyframes float3 {
                0%{transform: translate(0, 0)}
                50%{transform: translate(0, -10px)}
                100%{transform: translate(0, 0)}
            }

            .triangle-float3 {
                animation: float3 6s infinite;
            }
        </style></defs></svg>