<svg xmlns="http://www.w3.org/2000/svg" version="1.1" xmlns:xlink="http://www.w3.org/1999/xlink" xmlns:svgjs="http://svgjs.com/svgjs" width="1440" height="560" preserveAspectRatio="none" viewBox="0 0 1440 560"><g mask="url(&quot;#SvgjsMask1003&quot;)" fill="none"><path d="M1292.8703226936657 165.63950006291338L1217.4405566877092 220.44243294373376 1347.6732555744861 241.06926606886978z" fill="rgba(28, 83, 142, 0.4)" class="triangle-float1"></path><path d="M553.477,153.129C589.178,153.668,624.291,138.189,642.326,107.374C660.53,76.27,659.078,36.651,639.267,6.546C621.13,-21.016,586.469,-27.277,553.477,-27.644C519.605,-28.021,482.509,-23.974,464.313,4.598C445.069,34.816,450.72,74.042,469.159,104.758C487.034,134.534,518.752,152.604,553.477,153.129" fill="rgba(28, 83, 142, 0.4)" class="triangle-float3"></path><path d="M1216.461,395.23C1255.406,393.602,1276.223,353.799,1295.29,319.802C1313.75,286.887,1334.053,249.924,1316.767,216.378C1298.458,180.847,1256.351,164.271,1216.461,166.821C1180.482,169.121,1153.993,196.595,1136.156,227.926C1118.556,258.841,1109.929,294.837,1125.323,326.908C1142.932,363.595,1175.803,396.93,1216.461,395.23" fill="rgba(28, 83, 142, 0.4)" class="triangle-float1"></path><path d="M409.29,238.353C456.591,240.107,500.597,212.356,523.266,170.803C545.056,130.86,540.697,81.564,515.49,43.685C492.726,9.477,450.337,-2.358,409.29,-0.47C371.815,1.253,338.38,20.756,318.76,52.731C298.103,86.397,291.756,127.36,309.07,162.861C328.72,203.152,364.494,236.692,409.29,238.353" fill="rgba(28, 83, 142, 0.4)" class="triangle-float2"></path><path d="M1019.927,360.551C1058.622,362.702,1091.429,335.201,1111.136,301.831C1131.231,267.803,1138.792,226.168,1119.731,191.55C1100.063,155.83,1060.543,132.561,1019.927,136.176C983.71,139.4,962.538,174.173,946.785,206.943C933.526,234.525,931.583,264.95,944.74,292.581C960.307,325.275,983.772,358.541,1019.927,360.551" fill="rgba(28, 83, 142, 0.4)" class="triangle-float3"></path><path d="M331.921,328.9C383.501,328.03,436.549,316.819,465.527,274.14C498.19,226.034,508.003,162.482,479.214,111.962C450.192,61.034,390.527,38.53,331.921,39.685C275.452,40.798,223.139,68.983,194.351,117.576C164.986,167.143,158.838,230.501,190.27,278.784C219.557,323.772,278.248,329.806,331.921,328.9" fill="rgba(28, 83, 142, 0.4)" class="triangle-float3"></path></g><defs><mask id="SvgjsMask1003"><rect width="1440" height="560" fill="#ffffff"></rect></mask><style>
            @keyframes float1 {
                0%{transform: translate(0, 0)}
                50%{transform: translate(-10px, 0)}
                100%{transform: translate(0, 0)}
            }

            .triangle-float1 {
                animation: float1 5s infinite;
            }

            @keyframes float2 {
                0%{transform: translate(0, 0)}
                50%{transform: translate(-5px, -5px)}
                100%{transform: translate(0, 0)}
            }

            .triangle-float2 {
                animation: float2 4s infinite;
            }

            @keyframes float3 {
                0%{transform: translate(0, 0)}
                50%{transform: translate(0, -10px)}
                100%{transform: translate(0, 0)}
            }

            .triangle-float3 {
                animation: float3 6s infinite;
            }
        </style></defs></svg>