<svg xmlns="http://www.w3.org/2000/svg" version="1.1" xmlns:xlink="http://www.w3.org/1999/xlink" xmlns:svgjs="http://svgjs.com/svgjs" width="1440" height="560" preserveAspectRatio="none" viewBox="0 0 1440 560"><g mask="url(&quot;#SvgjsMask1021&quot;)" fill="none"><path d="M303.55068435811967 323.03616123055514L363.52710047998846 399.8024731746711 440.2934124241044 339.8260570528023 380.3169963022356 263.05974510868634z" fill="rgba(28, 83, 142, 0.4)" class="triangle-float3"></path><path d="M144.35977977756323 93.54906782315982L18.805896317915213 80.35282291749766 5.609651412253072 205.90670637714567 131.16353487190108 219.10295128280785z" fill="rgba(28, 83, 142, 0.4)" class="triangle-float3"></path><path d="M1151.4856843653217 349.1693559231011L1046.4290443638665 328.7484137626482 1026.0081022034137 433.80505376410343 1131.064742204869 454.2259959245563z" fill="rgba(28, 83, 142, 0.4)" class="triangle-float2"></path><path d="M396.996,414.01C424.234,414.749,456.868,416.93,470.39,393.274C483.868,369.695,465.453,342.705,450.839,319.813C437.769,299.34,421.285,278.171,396.996,278.305C372.864,278.438,356.603,299.718,344.172,320.402C331.203,341.982,317.816,367.544,330.189,389.471C342.685,411.615,371.578,413.321,396.996,414.01" fill="rgba(28, 83, 142, 0.4)" class="triangle-float1"></path><path d="M1232.169,442.341C1252.867,442.149,1265.899,422.017,1275.164,403.507C1283.276,387.301,1286.054,368.5,1276.98,352.812C1267.917,337.144,1250.261,329.717,1232.169,329.178C1212.932,328.605,1192.274,333.428,1182.483,349.998C1172.564,366.784,1178.53,387.148,1187.769,404.318C1197.664,422.709,1211.286,442.535,1232.169,442.341" fill="rgba(28, 83, 142, 0.4)" class="triangle-float1"></path><path d="M1214.109,316.253C1263.61,319.347,1310.945,288.029,1332.159,243.197C1351.11,203.147,1327.901,160.503,1306.044,121.962C1283.745,82.642,1259.142,38.949,1214.109,35.035C1163.592,30.645,1111.811,57.571,1089.592,103.151C1069.221,144.939,1095.671,189.741,1119.125,229.88C1142.265,269.482,1168.331,313.391,1214.109,316.253" fill="rgba(28, 83, 142, 0.4)" class="triangle-float1"></path><path d="M1164.2490225703411 506.1029253209143L1243.3699081300888 546.4170301001419 1283.6840129093164 467.2961445403944 1204.5631273495687 426.98203976116673z" fill="rgba(28, 83, 142, 0.4)" class="triangle-float3"></path><path d="M113.50408975031617 40.80245754393548L203.44495018802724 147.98980109159203 310.6322937356838 58.048940653880955 220.6914332979727-49.138402893775584z" fill="rgba(28, 83, 142, 0.4)" class="triangle-float2"></path><path d="M368.7969078663116 72.72894811104426L290.4639135808902 45.75673514691215 289.1720912774027 176.74233305711027z" fill="rgba(28, 83, 142, 0.4)" class="triangle-float2"></path></g><defs><mask id="SvgjsMask1021"><rect width="1440" height="560" fill="#ffffff"></rect></mask><style>
            @keyframes float1 {
                0%{transform: translate(0, 0)}
                50%{transform: translate(-10px, 0)}
                100%{transform: translate(0, 0)}
            }

            .triangle-float1 {
                animation: float1 5s infinite;
            }

            @keyframes float2 {
                0%{transform: translate(0, 0)}
                50%{transform: translate(-5px, -5px)}
                100%{transform: translate(0, 0)}
            }

            .triangle-float2 {
                animation: float2 4s infinite;
            }

            @keyframes float3 {
                0%{transform: translate(0, 0)}
                50%{transform: translate(0, -10px)}
                100%{transform: translate(0, 0)}
            }

            .triangle-float3 {
                animation: float3 6s infinite;
            }
        </style></defs></svg>