<svg xmlns="http://www.w3.org/2000/svg" version="1.1" xmlns:xlink="http://www.w3.org/1999/xlink" xmlns:svgjs="http://svgjs.com/svgjs" width="1440" height="560" preserveAspectRatio="none" viewBox="0 0 1440 560"><g mask="url(&quot;#SvgjsMask1007&quot;)" fill="none"><rect width="204" height="204" clip-path="url(&quot;#SvgjsClipPath1008&quot;)" x="738.16" y="175.7" fill="url(#SvgjsPattern1009)" transform="rotate(199.22, 840.16, 277.7)"></rect><path d="M869.31 119.1a5.6 5.6 0 1 0 10.59-3.64 5.6 5.6 0 1 0-10.59 3.64zM884.44 113.9a5.6 5.6 0 1 0 10.59-3.65 5.6 5.6 0 1 0-10.59 3.65zM899.56 108.69a5.6 5.6 0 1 0 10.6-3.64 5.6 5.6 0 1 0-10.6 3.64zM914.69 103.48a5.6 5.6 0 1 0 10.59-3.64 5.6 5.6 0 1 0-10.59 3.64z" fill="#037b0b"></path><path d="M980.71 37.07L993.4 35.35 997.87 47.35 1010.56 45.62 1015.03 57.62 1027.72 55.9 1032.19 67.9" stroke="#037b0b" stroke-width="2.14" stroke-dasharray="4, 4"></path><circle r="46.95730717124208" cx="760.72" cy="96.32" stroke="#037b0b" stroke-width="2.71" stroke-dasharray="3, 3"></circle><path d="M86.3 134.72L99.1 134.42 102.21 146.84 115.01 146.54 118.11 158.97 130.92 158.66 134.02 171.09" stroke="#e73635" stroke-width="1"></path><path d="M647.8299999999999 654.55 L707.79 588.95L626.4884895432268 570.4284895432269z" fill="#d3b714"></path><rect width="168" height="168" clip-path="url(&quot;#SvgjsClipPath1010&quot;)" x="1232.54" y="-71.32" fill="url(#SvgjsPattern1011)" transform="rotate(198.98, 1316.54, 12.68)"></rect><rect width="109.4" height="109.4" clip-path="url(&quot;#SvgjsClipPath1012&quot;)" x="1343.18" y="501.12" fill="url(#SvgjsPattern1013)" transform="rotate(3.5, 1397.88, 555.82)"></rect><path d="M527.69 95.01a5.6 5.6 0 1 0-10.54 3.81 5.6 5.6 0 1 0 10.54-3.81zM512.64 100.45a5.6 5.6 0 1 0-10.53 3.81 5.6 5.6 0 1 0 10.53-3.81zM497.59 105.89a5.6 5.6 0 1 0-10.53 3.81 5.6 5.6 0 1 0 10.53-3.81zM482.55 111.33a5.6 5.6 0 1 0-10.54 3.81 5.6 5.6 0 1 0 10.54-3.81zM552.34 69.08a5.6 5.6 0 1 0-10.53 3.81 5.6 5.6 0 1 0 10.53-3.81zM537.29 74.52a5.6 5.6 0 1 0-10.53 3.81 5.6 5.6 0 1 0 10.53-3.81zM522.25 79.96a5.6 5.6 0 1 0-10.54 3.81 5.6 5.6 0 1 0 10.54-3.81zM507.2 85.4a5.6 5.6 0 1 0-10.53 3.81 5.6 5.6 0 1 0 10.53-3.81zM576.99 43.15a5.6 5.6 0 1 0-10.53 3.81 5.6 5.6 0 1 0 10.53-3.81zM561.94 48.59a5.6 5.6 0 1 0-10.53 3.81 5.6 5.6 0 1 0 10.53-3.81zM546.9 54.03a5.6 5.6 0 1 0-10.53 3.81 5.6 5.6 0 1 0 10.53-3.81zM531.85 59.47a5.6 5.6 0 1 0-10.53 3.81 5.6 5.6 0 1 0 10.53-3.81z" stroke="#e73635" stroke-width="2.33"></path><path d="M902.37 344.7a5.6 5.6 0 1 0 11.15-1.03 5.6 5.6 0 1 0-11.15 1.03zM918.3 343.22a5.6 5.6 0 1 0 11.15-1.03 5.6 5.6 0 1 0-11.15 1.03zM934.23 341.75a5.6 5.6 0 1 0 11.15-1.03 5.6 5.6 0 1 0-11.15 1.03zM950.16 340.27a5.6 5.6 0 1 0 11.16-1.03 5.6 5.6 0 1 0-11.16 1.03zM871.98 363.58a5.6 5.6 0 1 0 11.15-1.03 5.6 5.6 0 1 0-11.15 1.03zM887.91 362.11a5.6 5.6 0 1 0 11.15-1.04 5.6 5.6 0 1 0-11.15 1.04zM903.84 360.63a5.6 5.6 0 1 0 11.16-1.03 5.6 5.6 0 1 0-11.16 1.03zM919.78 359.16a5.6 5.6 0 1 0 11.15-1.04 5.6 5.6 0 1 0-11.15 1.04zM841.59 382.46a5.6 5.6 0 1 0 11.15-1.03 5.6 5.6 0 1 0-11.15 1.03zM857.52 380.99a5.6 5.6 0 1 0 11.16-1.03 5.6 5.6 0 1 0-11.16 1.03zM873.46 379.51a5.6 5.6 0 1 0 11.15-1.03 5.6 5.6 0 1 0-11.15 1.03zM889.39 378.04a5.6 5.6 0 1 0 11.15-1.03 5.6 5.6 0 1 0-11.15 1.03z" fill="#d3b714"></path><path d="M1210.28 670.6700000000001 L1093.68 588.21L1252.4107501759818 529.0092498240183z" stroke="#e73635" stroke-width="1.81" stroke-dasharray="4, 4"></path><path d="M1268.8 176.11a5.6 5.6 0 1 0-10.18-4.67 5.6 5.6 0 1 0 10.18 4.67zM1254.26 169.44a5.6 5.6 0 1 0-10.18-4.67 5.6 5.6 0 1 0 10.18 4.67zM1239.71 162.77a5.6 5.6 0 1 0-10.18-4.67 5.6 5.6 0 1 0 10.18 4.67zM1225.17 156.1a5.6 5.6 0 1 0-10.18-4.67 5.6 5.6 0 1 0 10.18 4.67zM1304.56 174.91a5.6 5.6 0 1 0-10.18-4.67 5.6 5.6 0 1 0 10.18 4.67zM1290.01 168.23a5.6 5.6 0 1 0-10.18-4.66 5.6 5.6 0 1 0 10.18 4.66zM1275.47 161.56a5.6 5.6 0 1 0-10.18-4.67 5.6 5.6 0 1 0 10.18 4.67zM1260.93 154.89a5.6 5.6 0 1 0-10.18-4.67 5.6 5.6 0 1 0 10.18 4.67z" stroke="#e73635" stroke-width="1" stroke-dasharray="3, 2"></path></g><defs><mask id="SvgjsMask1007"><rect width="1440" height="560" fill="#ffffff"></rect></mask><pattern x="0" y="0" width="6" height="6" patternUnits="userSpaceOnUse" id="SvgjsPattern1009"><path d="M3 1L3 5M1 3L5 3" stroke="#d3b714" fill="none" stroke-width="1.54"></path></pattern><clipPath id="SvgjsClipPath1008"><circle r="51" cx="840.16" cy="277.7"></circle></clipPath><pattern x="0" y="0" width="6" height="6" patternUnits="userSpaceOnUse" id="SvgjsPattern1011"><path d="M0 6L3 0L6 6" stroke="#e73635" fill="none"></path></pattern><clipPath id="SvgjsClipPath1010"><circle r="42" cx="1316.54" cy="12.68"></circle></clipPath><pattern x="0" y="0" width="109.4" height="10.94" patternUnits="userSpaceOnUse" id="SvgjsPattern1013"><rect width="109.4" height="5.47" x="0" y="0" fill="#e73635"></rect><rect width="109.4" height="5.47" x="0" y="5.47" fill="rgba(0, 0, 0, 0)"></rect></pattern><clipPath id="SvgjsClipPath1012"><circle r="27.35" cx="1397.88" cy="555.82"></circle></clipPath></defs></svg>