<svg xmlns="http://www.w3.org/2000/svg" version="1.1" xmlns:xlink="http://www.w3.org/1999/xlink" xmlns:svgjs="http://svgjs.com/svgjs" width="1440" height="560" preserveAspectRatio="none" viewBox="0 0 1440 560"><g mask="url(&quot;#SvgjsMask1001&quot;)" fill="none"><path d="M836.48 207.08a8.77 8.77 0 1 0-9.59 14.69z" fill="#e73635"></path><path d="M1353.61 79.93 a18.1 18.1 0 1 0 36.2 0 a18.1 18.1 0 1 0 -36.2 0z" stroke="#d3b714"></path><path d="M500.35 331.81L525.47 331.81L525.47 338.58L500.35 338.58z" fill="#d3b714"></path><path d="M1225.64 374.43 a53.64 53.64 0 1 0 107.28 0 a53.64 53.64 0 1 0 -107.28 0z" fill="#037b0b"></path><path d="M435.76 207.23L473.37 207.23L473.37 244.84L435.76 244.84z" fill="#037b0b"></path><path d="M154.18 452.39L156.8 452.39L156.8 455.01L154.18 455.01z" stroke="#d3b714"></path><path d="M1178.55 503.6L1206.06 503.6L1206.06 542.18L1178.55 542.18z" fill="#e73635"></path><path d="M951.3 490.94L1005.99 490.94L1005.99 545.63L951.3 545.63z" fill="#e73635"></path><path d="M902.67 36.08L949.01 36.08L949.01 70.05L902.67 70.05z" stroke="#e73635"></path><path d="M440.67 293.05L457.71 293.05L457.71 310.09L440.67 310.09z" fill="#d3b714"></path><path d="M1016.61 440.61a1.34 1.34 0 1 0-1.65-2.11z" fill="#037b0b"></path><path d="M931.71 197.32a17.65 17.65 0 1 0-29.37-19.59z" fill="#037b0b"></path><path d="M1092.68 471.33L1132.89 471.33L1132.89 511.54L1092.68 511.54z" fill="#e73635"></path><path d="M471.01 190.97a38.92 38.92 0 1 0-72.77 27.62z" fill="#037b0b"></path><path d="M630.59 529.8L678.28 529.8L678.28 552.83L630.59 552.83z" stroke="#037b0b"></path><path d="M1213.52 53.55a15.3 15.3 0 1 0-29.28 8.89z" stroke="#037b0b"></path><path d="M170.98 406.95L225.67 406.95L225.67 437.11L170.98 437.11z" fill="#d3b714"></path><path d="M1399.93 389.36L1422.26 389.36L1422.26 411.69L1399.93 411.69z" fill="#e73635"></path><path d="M1073.8 230.31L1075.85 230.31L1075.85 232.36L1073.8 232.36z" fill="#037b0b"></path><path d="M1178.44 344.09L1211 344.09L1211 390.18L1178.44 390.18z" stroke="#e73635"></path><path d="M444.05 201.07 a14.36 14.36 0 1 0 28.72 0 a14.36 14.36 0 1 0 -28.72 0z" stroke="#e73635"></path><path d="M912.26 440.89 a32.2 32.2 0 1 0 64.4 0 a32.2 32.2 0 1 0 -64.4 0z" fill="#e73635"></path><path d="M748.13 175.68 a32.23 32.23 0 1 0 64.46 0 a32.23 32.23 0 1 0 -64.46 0z" stroke="#e73635"></path><path d="M417.24 89.61 a16.69 16.69 0 1 0 33.38 0 a16.69 16.69 0 1 0 -33.38 0z" fill="#037b0b"></path><path d="M674.5 354.78 a2.24 2.24 0 1 0 4.48 0 a2.24 2.24 0 1 0 -4.48 0z" fill="#037b0b"></path><path d="M728.01 408.64L740.58 408.64L740.58 464.5L728.01 464.5z" stroke="#d3b714"></path><path d="M510.32 6.05a9.26 9.26 0 1 0 12.25 13.89z" stroke="#d3b714"></path><path d="M138.68 88.65 a46.4 46.4 0 1 0 92.8 0 a46.4 46.4 0 1 0 -92.8 0z" fill="#d3b714"></path><path d="M1103.05 65.56L1129.87 65.56L1129.87 92.38L1103.05 92.38z" fill="#037b0b"></path><path d="M17.07 113.1L46.3 113.1L46.3 156.5L17.07 156.5z" fill="#037b0b"></path><path d="M363.54 380.57L406.08 380.57L406.08 432.22L363.54 432.22z" stroke="#e73635"></path><path d="M711.3 551.28L721.78 551.28L721.78 561.76L711.3 561.76z" stroke="#e73635"></path><path d="M1183.83 201.07a4.11 4.11 0 1 0 8.07 1.56z" fill="#e73635"></path></g><defs><mask id="SvgjsMask1001"><rect width="1440" height="560" fill="#ffffff"></rect></mask></defs></svg>