<svg xmlns="http://www.w3.org/2000/svg" version="1.1" xmlns:xlink="http://www.w3.org/1999/xlink" xmlns:svgjs="http://svgjs.com/svgjs" width="1440" height="560" preserveAspectRatio="none" viewBox="0 0 1440 560"><g mask="url(&quot;#SvgjsMask1001&quot;)" fill="none"><path d="M806.97 619.48C965.74 565.52 1006.04 103.36 1230.22 99.12 1454.41 94.88 1533.95 316.36 1653.48 323.12" stroke="rgba(51,121,194,0.58)" stroke-width="2"></path><path d="M434.92 617.63C587.77 617.09 719.92 505.52 1035.06 500.82 1350.19 496.12 1470.91 238.07 1635.19 232.02" stroke="rgba(51,121,194,0.58)" stroke-width="2"></path><path d="M511.05 609.53C668.16 591.09 736.16 255.92 1025.07 240.51 1313.97 225.1 1404.33 80.03 1539.08 78.11" stroke="rgba(51,121,194,0.58)" stroke-width="2"></path><path d="M585.96 621.37C734.02 604.54 799.86 291.02 1072.5 277.02 1345.15 263.02 1431.69 127.55 1559.05 125.82" stroke="rgba(51,121,194,0.58)" stroke-width="2"></path><path d="M667.58 601.93C774.78 577.52 710.06 312.39 980.82 293.25 1251.59 274.11 1440.06 61.88 1607.31 58.05" stroke="rgba(51,121,194,0.58)" stroke-width="2"></path></g><defs><mask id="SvgjsMask1001"><rect width="1440" height="560" fill="#ffffff"></rect></mask></defs></svg>